MutatorSansInstance_200-100.ufo
<glyph name="comma" format="2">
  <advance width="198"/>
  <unicode hex="002C"/>
  <outline>
    <contour>
      <point x="138" y="0" type="line"/>
      <point x="138" y="164" type="line"/>
      <point x="60" y="164" type="line"/>
      <point x="60" y="0" type="line"/>
      <point x="102" y="-10" type="line"/>
      <point x="91" y="12" type="line"/>
      <point x="69" y="-103" type="line"/>
      <point x="93" y="-105" type="line"/>
    </contour>
  </outline>
</glyph>
<glyph name="period" format="2">
  <advance width="197"/>
  <unicode hex="002E"/>
  <outline>
    <contour>
      <point x="59" y="0" type="line"/>
      <point x="137" y="0" type="line"/>
      <point x="137" y="164" type="line"/>
      <point x="59" y="164" type="line"/>
    </contour>
  </outline>
</glyph>
<glyph name="A" format="2">
  <advance width="543"/>
  <unicode hex="0041"/>
  <outline>
    <contour>
      <point x="21" y="0" type="line"/>
      <point x="104" y="0" type="line"/>
      <point x="259" y="720" type="line"/>
      <point x="188" y="720" type="line"/>
    </contour>
    <contour>
      <point x="98" y="160" type="line"/>
      <point x="434" y="160" type="line"/>
      <point x="434" y="231" type="line"/>
      <point x="98" y="231" type="line"/>
    </contour>
    <contour>
      <point x="413" y="0" type="line"/>
      <point x="520" y="0" type="line"/>
      <point x="353" y="720" type="line"/>
      <point x="255" y="720" type="line"/>
    </contour>
    <contour>
      <point x="210" y="637" type="line"/>
      <point x="322" y="637" type="line"/>
      <point x="322" y="720" type="line"/>
      <point x="210" y="720" type="line"/>
    </contour>
  </outline>
</glyph>
<glyph name="B" format="2">
  <advance width="567"/>
  <unicode hex="0042"/>
  <outline>
    <contour>
      <point x="59" y="0" type="line"/>
      <point x="156" y="0" type="line"/>
      <point x="156" y="720" type="line"/>
      <point x="59" y="720" type="line"/>
    </contour>
    <contour>
      <point x="128" y="336" type="line"/>
      <point x="299" y="336" type="line" smooth="yes"/>
      <point x="391" y="336"/>
      <point x="435" y="283"/>
      <point x="435" y="205" type="curve" smooth="yes"/>
      <point x="435" y="124"/>
      <point x="388" y="76"/>
      <point x="292" y="76" type="curve" smooth="yes"/>
      <point x="128" y="76" type="line"/>
      <point x="128" y="0" type="line"/>
      <point x="297" y="0" type="line" smooth="yes"/>
      <point x="471" y="0"/>
      <point x="529" y="82"/>
      <point x="529" y="192" type="curve" smooth="yes"/>
      <point x="529" y="290"/>
      <point x="478" y="364"/>
      <point x="363" y="376" type="curve"/>
      <point x="373" y="355" type="line"/>
      <point x="460" y="372"/>
      <point x="508" y="440"/>
      <point x="508" y="526" type="curve" smooth="yes"/>
      <point x="508" y="637"/>
      <point x="458" y="720"/>
      <point x="282" y="720" type="curve" smooth="yes"/>
      <point x="128" y="720" type="line"/>
      <point x="128" y="646" type="line"/>
      <point x="279" y="646" type="line" smooth="yes"/>
      <point x="382" y="646"/>
      <point x="415" y="595"/>
      <point x="415" y="518" type="curve" smooth="yes"/>
      <point x="415" y="440"/>
      <point x="371" y="389"/>
      <point x="279" y="389" type="curve" smooth="yes"/>
      <point x="128" y="389" type="line"/>
    </contour>
  </outline>
</glyph>
<glyph name="C" format="2">
  <advance width="639"/>
  <unicode hex="0043"/>
  <outline>
    <contour>
      <point x="500" y="288" type="line"/>
      <point x="487" y="126"/>
      <point x="425" y="72"/>
      <point x="331" y="72" type="curve" smooth="yes"/>
      <point x="316" y="72" type="line" smooth="yes"/>
      <point x="211" y="72"/>
      <point x="145" y="144"/>
      <point x="145" y="362" type="curve" smooth="yes"/>
      <point x="145" y="578"/>
      <point x="211" y="648"/>
      <point x="316" y="648" type="curve" smooth="yes"/>
      <point x="331" y="648" type="line" smooth="yes"/>
      <point x="424" y="648"/>
      <point x="486" y="597"/>
      <point x="500" y="439" type="curve"/>
      <point x="592" y="449" type="line"/>
      <point x="572" y="648"/>
      <point x="476" y="730"/>
      <point x="333" y="730" type="curve" smooth="yes"/>
      <point x="313" y="730" type="line" smooth="yes"/>
      <point x="149" y="730"/>
      <point x="47" y="626"/>
      <point x="47" y="362" type="curve" smooth="yes"/>
      <point x="47" y="97"/>
      <point x="149" y="-10"/>
      <point x="313" y="-10" type="curve" smooth="yes"/>
      <point x="333" y="-10" type="line" smooth="yes"/>
      <point x="477" y="-10"/>
      <point x="573" y="74"/>
      <point x="592" y="277" type="curve"/>
    </contour>
  </outline>
</glyph>
<glyph name="D" format="2">
  <advance width="584"/>
  <unicode hex="0044"/>
  <outline>
    <contour>
      <point x="59" y="0" type="line"/>
      <point x="152" y="0" type="line"/>
      <point x="152" y="720" type="line"/>
      <point x="59" y="720" type="line"/>
    </contour>
    <contour>
      <point x="129" y="640" type="line"/>
      <point x="240" y="640" type="line" smooth="yes"/>
      <point x="358" y="640"/>
      <point x="439" y="578"/>
      <point x="439" y="362" type="curve" smooth="yes"/>
      <point x="439" y="144"/>
      <point x="358" y="80"/>
      <point x="240" y="80" type="curve" smooth="yes"/>
      <point x="128" y="80" type="line"/>
      <point x="128" y="0" type="line"/>
      <point x="242" y="0" type="line" smooth="yes"/>
      <point x="418" y="0"/>
      <point x="537" y="98"/>
      <point x="537" y="362" type="curve" smooth="yes"/>
      <point x="537" y="625"/>
      <point x="418" y="720"/>
      <point x="242" y="720" type="curve" smooth="yes"/>
      <point x="129" y="720" type="line"/>
    </contour>
  </outline>
</glyph>
<glyph name="E" format="2">
  <advance width="494"/>
  <unicode hex="0045"/>
  <anchor x="259" y="765" name="top"/>
  <outline>
    <contour>
      <point x="61" y="0" type="line"/>
      <point x="154" y="0" type="line"/>
      <point x="154" y="720" type="line"/>
      <point x="61" y="720" type="line"/>
    </contour>
    <contour>
      <point x="95" y="637" type="line"/>
      <point x="449" y="637" type="line"/>
      <point x="449" y="720" type="line"/>
      <point x="95" y="720" type="line"/>
    </contour>
    <contour>
      <point x="95" y="0" type="line"/>
      <point x="449" y="0" type="line"/>
      <point x="449" y="83" type="line"/>
      <point x="95" y="83" type="line"/>
    </contour>
    <contour>
      <point x="95" y="330" type="line"/>
      <point x="414" y="330" type="line"/>
      <point x="414" y="393" type="line"/>
      <point x="95" y="393" type="line"/>
    </contour>
  </outline>
</glyph>
<glyph name="F" format="2">
  <advance width="505"/>
  <unicode hex="0046"/>
  <outline>
    <contour>
      <point x="59" y="0" type="line"/>
      <point x="157" y="0" type="line"/>
      <point x="157" y="720" type="line"/>
      <point x="59" y="720" type="line"/>
    </contour>
    <contour>
      <point x="95" y="641" type="line"/>
      <point x="446" y="641" type="line"/>
      <point x="446" y="720" type="line"/>
      <point x="95" y="720" type="line"/>
    </contour>
    <contour>
      <point x="95" y="304" type="line"/>
      <point x="425" y="304" type="line"/>
      <point x="425" y="375" type="line"/>
      <point x="95" y="375" type="line"/>
    </contour>
  </outline>
</glyph>
<glyph name="G" format="2">
  <advance width="654"/>
  <unicode hex="0047"/>
  <outline>
    <contour>
      <point x="306" y="301" type="line"/>
      <point x="517" y="301" type="line"/>
      <point x="517" y="216" type="line"/>
      <point x="547" y="0" type="line"/>
      <point x="593" y="0" type="line"/>
      <point x="593" y="350" type="line"/>
      <point x="306" y="350" type="line"/>
    </contour>
    <contour>
      <point x="508" y="302" type="line"/>
      <point x="494" y="126"/>
      <point x="432" y="72"/>
      <point x="335" y="72" type="curve" smooth="yes"/>
      <point x="316" y="72" type="line" smooth="yes"/>
      <point x="211" y="72"/>
      <point x="145" y="144"/>
      <point x="145" y="362" type="curve" smooth="yes"/>
      <point x="145" y="578"/>
      <point x="218" y="648"/>
      <point x="325" y="648" type="curve" smooth="yes"/>
      <point x="344" y="648" type="line" smooth="yes"/>
      <point x="438" y="648"/>
      <point x="494" y="597"/>
      <point x="508" y="439" type="curve"/>
      <point x="594" y="449" type="line"/>
      <point x="574" y="648"/>
      <point x="486" y="730"/>
      <point x="344" y="730" type="curve" smooth="yes"/>
      <point x="319" y="730" type="line" smooth="yes"/>
      <point x="155" y="730"/>
      <point x="47" y="626"/>
      <point x="47" y="362" type="curve" smooth="yes"/>
      <point x="47" y="97"/>
      <point x="149" y="-10"/>
      <point x="313" y="-10" type="curve" smooth="yes"/>
      <point x="334" y="-10" type="line" smooth="yes"/>
      <point x="476" y="-10"/>
      <point x="562" y="74"/>
      <point x="573" y="292" type="curve"/>
    </contour>
  </outline>
</glyph>
<glyph name="H" format="2">
  <advance width="585"/>
  <unicode hex="0048"/>
  <outline>
    <contour>
      <point x="59" y="0" type="line"/>
      <point x="157" y="0" type="line"/>
      <point x="157" y="720" type="line"/>
      <point x="59" y="720" type="line"/>
    </contour>
    <contour>
      <point x="99" y="319" type="line"/>
      <point x="486" y="319" type="line"/>
      <point x="486" y="400" type="line"/>
      <point x="99" y="400" type="line"/>
    </contour>
    <contour>
      <point x="427" y="0" type="line"/>
      <point x="525" y="0" type="line"/>
      <point x="525" y="720" type="line"/>
      <point x="427" y="720" type="line"/>
    </contour>
  </outline>
</glyph>
<glyph name="I" format="2">
  <advance width="426"/>
  <unicode hex="0049"/>
  <outline>
    <contour>
      <point x="164" y="0" type="line"/>
      <point x="262" y="0" type="line"/>
      <point x="262" y="720" type="line"/>
      <point x="164" y="720" type="line"/>
    </contour>
    <contour>
      <point x="59" y="635" type="line"/>
      <point x="367" y="635" type="line"/>
      <point x="367" y="720" type="line"/>
      <point x="59" y="720" type="line"/>
    </contour>
    <contour>
      <point x="59" y="0" type="line"/>
      <point x="367" y="0" type="line"/>
      <point x="367" y="85" type="line"/>
      <point x="59" y="85" type="line"/>
    </contour>
  </outline>
</glyph>
<glyph name="J" format="2">
  <advance width="482"/>
  <unicode hex="004A"/>
  <outline>
    <contour>
      <point x="156" y="-10" type="curve" smooth="yes"/>
      <point x="322" y="-10"/>
      <point x="423" y="65"/>
      <point x="423" y="258" type="curve" smooth="yes"/>
      <point x="423" y="720" type="line"/>
      <point x="324" y="720" type="line"/>
      <point x="324" y="271" type="line" smooth="yes"/>
      <point x="324" y="122"/>
      <point x="259" y="76"/>
      <point x="149" y="76" type="curve" smooth="yes"/>
      <point x="125" y="76"/>
      <point x="101" y="78"/>
      <point x="79" y="84" type="curve"/>
      <point x="59" y="2" type="line"/>
      <point x="88" y="-6"/>
      <point x="121" y="-10"/>
    </contour>
  </outline>
</glyph>
<glyph name="K" format="2">
  <advance width="563"/>
  <unicode hex="004B"/>
  <outline>
    <contour>
      <point x="59" y="0" type="line"/>
      <point x="157" y="0" type="line"/>
      <point x="157" y="720" type="line"/>
      <point x="59" y="720" type="line"/>
    </contour>
    <contour>
      <point x="129" y="326" type="line"/>
      <point x="197" y="326" type="line"/>
      <point x="424" y="0" type="line"/>
      <point x="540" y="0" type="line"/>
      <point x="268" y="399" type="line"/>
      <point x="208" y="383" type="line"/>
      <point x="129" y="383" type="line"/>
    </contour>
    <contour>
      <point x="181" y="364" type="line"/>
      <point x="252" y="331" type="line"/>
      <point x="533" y="720" type="line"/>
      <point x="425" y="720" type="line"/>
    </contour>
  </outline>
</glyph>
<glyph name="L" format="2">
  <advance width="464"/>
  <unicode hex="004C"/>
  <outline>
    <contour>
      <point x="59" y="0" type="line"/>
      <point x="157" y="0" type="line"/>
      <point x="157" y="720" type="line"/>
      <point x="59" y="720" type="line"/>
    </contour>
    <contour>
      <point x="95" y="0" type="line"/>
      <point x="436" y="0" type="line"/>
      <point x="436" y="79" type="line"/>
      <point x="95" y="79" type="line"/>
    </contour>
  </outline>
</glyph>
<glyph name="M" format="2">
  <advance width="630"/>
  <unicode hex="004D"/>
  <outline>
    <contour>
      <point x="59" y="0" type="line"/>
      <point x="143" y="0" type="line"/>
      <point x="143" y="720" type="line"/>
      <point x="59" y="720" type="line"/>
    </contour>
    <contour>
      <point x="571" y="0" type="line"/>
      <point x="571" y="720" type="line"/>
      <point x="488" y="720" type="line"/>
      <point x="488" y="0" type="line"/>
    </contour>
    <contour>
      <point x="532" y="607" type="line"/>
      <point x="488" y="720" type="line"/>
      <point x="302" y="377" type="line"/>
      <point x="329" y="377" type="line"/>
      <point x="143" y="720" type="line"/>
      <point x="99" y="607" type="line"/>
      <point x="296" y="258" type="line"/>
      <point x="335" y="258" type="line"/>
    </contour>
  </outline>
</glyph>
<glyph name="N" format="2">
  <advance width="587"/>
  <unicode hex="004E"/>
  <outline>
    <contour>
      <point x="59" y="0" type="line"/>
      <point x="139" y="0" type="line"/>
      <point x="139" y="720" type="line"/>
      <point x="59" y="720" type="line"/>
    </contour>
    <contour>
      <point x="89" y="621" type="line"/>
      <point x="448" y="0" type="line"/>
      <point x="498" y="99" type="line"/>
      <point x="139" y="720" type="line"/>
    </contour>
    <contour>
      <point x="448" y="0" type="line"/>
      <point x="528" y="0" type="line"/>
      <point x="528" y="720" type="line"/>
      <point x="448" y="720" type="line"/>
    </contour>
  </outline>
</glyph>
<glyph name="O" format="2">
  <advance width="647"/>
  <unicode hex="004F"/>
  <outline>
    <contour>
      <point x="313" y="-10" type="curve" smooth="yes"/>
      <point x="334" y="-10" type="line" smooth="yes"/>
      <point x="497" y="-10"/>
      <point x="601" y="97"/>
      <point x="601" y="362" type="curve" smooth="yes"/>
      <point x="601" y="626"/>
      <point x="497" y="730"/>
      <point x="334" y="730" type="curve" smooth="yes"/>
      <point x="313" y="730" type="line" smooth="yes"/>
      <point x="149" y="730"/>
      <point x="47" y="626"/>
      <point x="47" y="362" type="curve" smooth="yes"/>
      <point x="47" y="97"/>
      <point x="149" y="-10"/>
    </contour>
    <contour>
      <point x="316" y="72" type="line" smooth="yes"/>
      <point x="211" y="72"/>
      <point x="145" y="144"/>
      <point x="145" y="362" type="curve" smooth="yes"/>
      <point x="145" y="578"/>
      <point x="211" y="648"/>
      <point x="316" y="648" type="curve" smooth="yes"/>
      <point x="332" y="648" type="line" smooth="yes"/>
      <point x="437" y="648"/>
      <point x="502" y="578"/>
      <point x="502" y="362" type="curve" smooth="yes"/>
      <point x="502" y="144"/>
      <point x="437" y="72"/>
      <point x="332" y="72" type="curve" smooth="yes"/>
    </contour>
  </outline>
</glyph>
<glyph name="P" format="2">
  <advance width="523"/>
  <unicode hex="0050"/>
  <outline>
    <contour>
      <point x="59" y="0" type="line"/>
      <point x="157" y="0" type="line"/>
      <point x="157" y="720" type="line"/>
      <point x="59" y="720" type="line"/>
    </contour>
    <contour>
      <point x="125" y="637" type="line"/>
      <point x="237" y="637" type="line" smooth="yes"/>
      <point x="353" y="637"/>
      <point x="403" y="559"/>
      <point x="403" y="442" type="curve" smooth="yes"/>
      <point x="403" y="324"/>
      <point x="353" y="248"/>
      <point x="237" y="248" type="curve" smooth="yes"/>
      <point x="125" y="248" type="line"/>
      <point x="125" y="165" type="line"/>
      <point x="232" y="165" type="line" smooth="yes"/>
      <point x="427" y="165"/>
      <point x="494" y="283"/>
      <point x="494" y="442" type="curve" smooth="yes"/>
      <point x="494" y="603"/>
      <point x="427" y="720"/>
      <point x="233" y="720" type="curve" smooth="yes"/>
      <point x="125" y="720" type="line"/>
    </contour>
  </outline>
</glyph>
<glyph name="R" format="2">
  <advance width="538"/>
  <unicode hex="0052"/>
  <outline>
    <contour>
      <point x="400" y="0" type="line"/>
      <point x="504" y="0" type="line"/>
      <point x="418" y="143" type="line" smooth="yes"/>
      <point x="385" y="193"/>
      <point x="364" y="214"/>
      <point x="331" y="214" type="curve"/>
      <point x="275" y="214" type="line"/>
    </contour>
    <contour>
      <point x="59" y="0" type="line"/>
      <point x="157" y="0" type="line"/>
      <point x="157" y="720" type="line"/>
      <point x="59" y="720" type="line"/>
    </contour>
    <contour>
      <point x="125" y="637" type="line"/>
      <point x="239" y="637" type="line" smooth="yes"/>
      <point x="355" y="637"/>
      <point x="404" y="559"/>
      <point x="404" y="442" type="curve" smooth="yes"/>
      <point x="404" y="324"/>
      <point x="355" y="248"/>
      <point x="239" y="248" type="curve" smooth="yes"/>
      <point x="125" y="248" type="line"/>
      <point x="125" y="177" type="line"/>
      <point x="236" y="177" type="line" smooth="yes"/>
      <point x="427" y="177"/>
      <point x="496" y="293"/>
      <point x="496" y="448" type="curve" smooth="yes"/>
      <point x="496" y="605"/>
      <point x="425" y="720"/>
      <point x="234" y="720" type="curve" smooth="yes"/>
      <point x="125" y="720" type="line"/>
    </contour>
  </outline>
</glyph>
<glyph name="S" format="2">
  <advance width="528"/>
  <unicode hex="0053"/>
  <outline>
    <contour>
      <point x="483" y="179" type="curve" smooth="yes"/>
      <point x="483" y="289"/>
      <point x="419" y="344"/>
      <point x="303" y="394" type="curve" smooth="yes"/>
      <point x="239" y="424" type="line" smooth="yes"/>
      <point x="162" y="461"/>
      <point x="134" y="497"/>
      <point x="134" y="553" type="curve" smooth="yes"/>
      <point x="134" y="607"/>
      <point x="178" y="652"/>
      <point x="270" y="652" type="curve" smooth="yes"/>
      <point x="291" y="652" type="line" smooth="yes"/>
      <point x="361" y="652"/>
      <point x="418" y="640"/>
      <point x="468" y="616" type="curve"/>
      <point x="489" y="692" type="line"/>
      <point x="440" y="713"/>
      <point x="378" y="731"/>
      <point x="305" y="731" type="curve" smooth="yes"/>
      <point x="287" y="731" type="line" smooth="yes"/>
      <point x="128" y="731"/>
      <point x="50" y="653"/>
      <point x="51" y="539" type="curve" smooth="yes"/>
      <point x="52" y="434"/>
      <point x="115" y="377"/>
      <point x="227" y="327" type="curve" smooth="yes"/>
      <point x="290" y="296" type="line" smooth="yes"/>
      <point x="374" y="253"/>
      <point x="399" y="226"/>
      <point x="399" y="169" type="curve" smooth="yes"/>
      <point x="399" y="113"/>
      <point x="355" y="69"/>
      <point x="258" y="69" type="curve" smooth="yes"/>
      <point x="237" y="69" type="line" smooth="yes"/>
      <point x="164" y="69"/>
      <point x="103" y="81"/>
      <point x="49" y="107" type="curve"/>
      <point x="28" y="31" type="line"/>
      <point x="81" y="8"/>
      <point x="148" y="-10"/>
      <point x="224" y="-10" type="curve" smooth="yes"/>
      <point x="242" y="-10" type="line" smooth="yes"/>
      <point x="414" y="-10"/>
      <point x="484" y="71"/>
    </contour>
  </outline>
</glyph>
<glyph name="T" format="2">
  <advance width="545"/>
  <unicode hex="0054"/>
  <outline>
    <contour>
      <point x="223" y="0" type="line"/>
      <point x="321" y="0" type="line"/>
      <point x="321" y="720" type="line"/>
      <point x="223" y="720" type="line"/>
    </contour>
    <contour>
      <point x="29" y="640" type="line"/>
      <point x="516" y="640" type="line"/>
      <point x="516" y="720" type="line"/>
      <point x="29" y="720" type="line"/>
    </contour>
  </outline>
</glyph>
<glyph name="U" format="2">
  <advance width="590"/>
  <unicode hex="0055"/>
  <outline>
    <contour>
      <point x="295" y="-10" type="curve" smooth="yes"/>
      <point x="447" y="-10"/>
      <point x="530" y="58"/>
      <point x="530" y="230" type="curve" smooth="yes"/>
      <point x="530" y="720" type="line"/>
      <point x="432" y="720" type="line"/>
      <point x="432" y="221" type="line" smooth="yes"/>
      <point x="432" y="107"/>
      <point x="381" y="72"/>
      <point x="295" y="72" type="curve" smooth="yes"/>
      <point x="211" y="72"/>
      <point x="158" y="107"/>
      <point x="158" y="221" type="curve" smooth="yes"/>
      <point x="158" y="720" type="line"/>
      <point x="60" y="720" type="line"/>
      <point x="60" y="230" type="line" smooth="yes"/>
      <point x="60" y="58"/>
      <point x="142" y="-10"/>
    </contour>
  </outline>
</glyph>
<glyph name="V" format="2">
  <advance width="541"/>
  <unicode hex="0056"/>
  <outline>
    <contour>
      <point x="520" y="720" type="line"/>
      <point x="435" y="720" type="line"/>
      <point x="280" y="0" type="line"/>
      <point x="354" y="0" type="line"/>
    </contour>
    <contour>
      <point x="129" y="720" type="line"/>
      <point x="20" y="720" type="line"/>
      <point x="186" y="0" type="line"/>
      <point x="287" y="0" type="line"/>
    </contour>
    <contour>
      <point x="333" y="83" type="line"/>
      <point x="221" y="83" type="line"/>
      <point x="221" y="0" type="line"/>
      <point x="333" y="0" type="line"/>
    </contour>
  </outline>
</glyph>
<glyph name="W" format="2">
  <advance width="672"/>
  <unicode hex="0057"/>
  <outline>
    <contour>
      <point x="651" y="720" type="line"/>
      <point x="563" y="720" type="line"/>
      <point x="466" y="104" type="line"/>
      <point x="480" y="104" type="line"/>
      <point x="377" y="720" type="line"/>
      <point x="305" y="720" type="line"/>
      <point x="206" y="103" type="line"/>
      <point x="221" y="103" type="line"/>
      <point x="118" y="720" type="line"/>
      <point x="21" y="720" type="line"/>
      <point x="146" y="0" type="line"/>
      <point x="241" y="0" type="line"/>
      <point x="337" y="596" type="line"/>
      <point x="321" y="595" type="line"/>
      <point x="426" y="0" type="line"/>
      <point x="527" y="0" type="line"/>
    </contour>
  </outline>
</glyph>
<glyph name="X" format="2">
  <advance width="530"/>
  <unicode hex="0058"/>
  <outline>
    <contour>
      <point x="396" y="0" type="line"/>
      <point x="512" y="0" type="line"/>
      <point x="301" y="386" type="line"/>
      <point x="141" y="720" type="line"/>
      <point x="26" y="720" type="line"/>
      <point x="228" y="341" type="line"/>
    </contour>
    <contour>
      <point x="20" y="0" type="line"/>
      <point x="103" y="0" type="line"/>
      <point x="258" y="330" type="line"/>
      <point x="313" y="339" type="line"/>
      <point x="502" y="720" type="line"/>
      <point x="419" y="720" type="line"/>
      <point x="272" y="398" type="line"/>
      <point x="216" y="385" type="line"/>
    </contour>
  </outline>
</glyph>
<glyph name="Y" format="2">
  <advance width="539"/>
  <unicode hex="0059"/>
  <outline>
    <contour>
      <point x="520" y="720" type="line"/>
      <point x="438" y="720" type="line"/>
      <point x="257" y="207" type="line"/>
      <point x="318" y="205" type="line"/>
    </contour>
    <contour>
      <point x="128" y="720" type="line"/>
      <point x="19" y="720" type="line"/>
      <point x="221" y="205" type="line"/>
      <point x="310" y="207" type="line"/>
    </contour>
    <contour>
      <point x="318" y="256" type="line"/>
      <point x="220" y="256" type="line"/>
      <point x="220" y="0" type="line"/>
      <point x="318" y="0" type="line"/>
    </contour>
  </outline>
</glyph>
<glyph name="Z" format="2">
  <advance width="554"/>
  <unicode hex="005A"/>
  <outline>
    <contour>
      <point x="59" y="79" type="line"/>
      <point x="161" y="65" type="line"/>
      <point x="494" y="641" type="line"/>
      <point x="393" y="655" type="line"/>
    </contour>
    <contour>
      <point x="59" y="641" type="line"/>
      <point x="494" y="641" type="line"/>
      <point x="494" y="720" type="line"/>
      <point x="59" y="720" type="line"/>
    </contour>
    <contour>
      <point x="59" y="0" type="line"/>
      <point x="494" y="0" type="line"/>
      <point x="494" y="79" type="line"/>
      <point x="59" y="79" type="line"/>
    </contour>
  </outline>
</glyph>
<glyph name="I.narrow" format="2">
  <advance width="217"/>
  <outline>
    <contour>
      <point x="59" y="0" type="line"/>
      <point x="157" y="0" type="line"/>
      <point x="157" y="720" type="line"/>
      <point x="59" y="720" type="line"/>
    </contour>
  </outline>
</glyph>
